# File created by Blade
# Date/Time:  Wed Jan 21 14:55:15 2015
# Frame Rate: 120.000 fps
#------------------------------------------------------
:FULLY-SPECIFIED
:DEGREES
1288
root 20.666206 35.399144 -23.966969 -173.085083 0.023468 -178.893275
Spine -18.756029 -0.330542 0.820832
Head 12.890348 -2.317748 0.150153
LeftShoulder -14.878476 -29.452938 18.171237
LeftArm 7.520647 2.322331 -11.395691
LeftForeArm 6.556741 -0.000000 -2.635368
LeftHand -10.195008 -0.000000 -2.478926
LeftHandThumb1 -26.253704 0.000000 33.147579
RightShoulder -13.443900 -5.723920 -7.727544
RightArm 12.394564 39.721465 17.220489
RightForeArm -33.760753 -0.000000 5.823275
RightHand -10.312203 -0.000000 4.433317
RightHandThumb1 -24.326973 -0.000000 -32.862282
LeftUpLeg 2.987983 14.251346 2.766106
LeftLeg -6.805202 -0.000000 0.000000
LeftFoot -20.754235 25.619878 -14.781190
LeftToeBase 26.067975 -0.000000 -0.000000
RightUpLeg 0.393883 -12.093348 -2.658760
RightLeg -3.681295 -0.000000 0.000000
RightFoot -19.362928 -21.717964 17.818828
RightToeBase 24.779311 -0.000000 -0.000000
1289
root 20.666225 35.398926 -23.966535 -173.080198 0.014858 -178.893581
Spine -18.749100 -0.343613 0.832087
Head 12.881235 -2.371836 0.145639
LeftShoulder -14.890435 -29.429413 18.157462
LeftArm 7.540049 2.322288 -11.391728
LeftForeArm 6.535547 -0.000000 -2.646984
LeftHand -10.170154 -0.000000 -2.451002
LeftHandThumb1 -26.253704 0.000000 33.147579
RightShoulder -13.441124 -5.723752 -7.740161
RightArm 12.402618 39.723095 17.234220
RightForeArm -33.762221 -0.000000 5.825913
RightHand -10.315407 -0.000000 4.439108
RightHandThumb1 -24.326973 -0.000000 -32.862282
LeftUpLeg 2.966912 14.269553 2.769005
LeftLeg -6.774605 -0.000000 0.000000
LeftFoot -20.757141 25.581206 -14.759743
LeftToeBase 26.080907 -0.000000 -0.000000
RightUpLeg 0.385495 -12.106607 -2.658187
RightLeg -3.671870 -0.000000 0.000000
RightFoot -19.375127 -21.707474 17.811671
RightToeBase 24.780243 -0.000000 -0.000000
1290
root 20.669602 35.399018 -23.967722 -173.082430 0.015630 -178.889991
Spine -18.736859 -0.338521 0.824440
Head 12.879418 -2.346304 0.144821
LeftShoulder -14.885536 -29.446422 18.169811
LeftArm 7.530764 2.352712 -11.397377
LeftForeArm 6.521085 -0.000000 -2.631426
LeftHand -10.187988 0.000000 -2.436331
LeftHandThumb1 -26.253704 0.000000 33.147579
RightShoulder -13.453715 -5.749762 -7.730226
RightArm 12.430994 39.774121 17.265044
RightForeArm -33.796614 -0.000000 5.811937
RightHand -10.298644 -0.000000 4.431064
RightHandThumb1 -24.326973 -0.000000 -32.862282
LeftUpLeg 2.986612 14.244287 2.775378
LeftLeg -6.806974 -0.000000 0.000000
LeftFoot -20.751514 25.626707 -14.776049
LeftToeBase 26.082537 -0.000000 -0.000000
RightUpLeg 0.393753 -12.101447 -2.649583
RightLeg -3.679493 -0.000000 0.000000
RightFoot -19.370944 -21.701864 17.818388
RightToeBase 24.795605 -0.000000 -0.000000
1291
root 20.672008 35.398576 -23.967617 -173.081912 0.017355 -178.888195
Spine -18.722093 -0.338232 0.821835
Head 12.865583 -2.406147 0.159150
LeftShoulder -14.892090 -29.430298 18.174579
LeftArm 7.544962 2.347741 -11.406021
LeftForeArm 6.484187 -0.000000 -2.643603
LeftHand -10.144273 -0.000000 -2.444632
LeftHandThumb1 -26.253704 0.000000 33.147579
RightShoulder -13.475429 -5.740521 -7.730773
RightArm 12.473146 39.763271 17.299886
RightForeArm -33.784473 -0.000000 5.806837
RightHand -10.313595 -0.000000 4.404730
RightHandThumb1 -24.326973 -0.000000 -32.862282
LeftUpLeg 2.984767 14.270061 2.779007
LeftLeg -6.807060 -0.000000 0.000000
LeftFoot -20.750942 25.605949 -14.784451
LeftToeBase 26.072464 -0.000000 -0.000000
RightUpLeg 0.395925 -12.070278 -2.644886
RightLeg -3.683682 -0.000000 0.000000
RightFoot -19.377248 -21.733524 17.813647
RightToeBase 24.796127 -0.000000 -0.000000
1292
root 20.674103 35.398746 -23.967822 -173.077130 0.017351 -178.880581
Spine -18.716084 -0.335680 0.830023
Head 12.851990 -2.421779 0.159677
LeftShoulder -14.898874 -29.418412 18.167995
LeftArm 7.564400 2.324357 -11.413460
LeftForeArm 6.476070 -0.000000 -2.652508
LeftHand -10.153680 -0.000000 -2.402965
LeftHandThumb1 -26.253704 0.000000 33.147579
RightShoulder -13.480454 -5.755347 -7.733341
RightArm 12.483589 39.784706 17.319429
RightForeArm -33.782261 -0.000000 5.813308
RightHand -10.307447 -0.000000 4.393027
RightHandThumb1 -24.326973 -0.000000 -32.862282
LeftUpLeg 2.979257 14.262401 2.788859
LeftLeg -6.806088 -0.000000 0.000000
LeftFoot -20.749678 25.623174 -14.766986
LeftToeBase 26.095991 -0.000000 -0.000000
RightUpLeg 0.385613 -12.075871 -2.631904
RightLeg -3.673441 -0.000000 0.000000
RightFoot -19.380133 -21.724479 17.830624
RightToeBase 24.728394 -0.000000 -0.000000
1293
root 20.676573 35.398817 -23.966895 -173.073484 0.021649 -178.879913
Spine -18.698756 -0.337572 0.823392
Head 12.823669 -2.399811 0.179878
LeftShoulder -14.917726 -29.437884 18.195181
LeftArm 7.549909 2.333614 -11.428209
LeftForeArm 6.470938 0.000000 -2.619132
LeftHand -10.177146 0.000000 -2.437155
LeftHandThumb1 -26.253704 0.000000 33.147579
RightShoulder -13.489519 -5.749167 -7.719736
RightArm 12.492895 39.781785 17.323602
RightForeArm -33.759934 0.000000 5.827536
RightHand -10.303790 0.000000 4.397922
RightHandThumb1 -24.326973 -0.000000 -32.862282
LeftUpLeg 2.976502 14.252888 2.791191
LeftLeg -6.808902 -0.000000 0.000000
LeftFoot -20.748322 25.639960 -14.781469
LeftToeBase 26.065749 -0.000000 -0.000000
RightUpLeg 0.382401 -12.049446 -2.628467
RightLeg -3.677086 -0.000000 0.000000
RightFoot -19.383981 -21.743003 17.824548
RightToeBase 24.755935 -0.000000 -0.000000
1294
root 20.678236 35.399064 -23.967499 -173.068768 0.023588 -178.870924
Spine -18.694248 -0.328459 0.833752
Head 12.815608 -2.403618 0.171526
LeftShoulder -14.925919 -29.443199 18.204538
LeftArm 7.553235 2.319787 -11.455209
LeftForeArm 6.479769 -0.000000 -2.610331
LeftHand -10.204436 0.000000 -2.404214
LeftHandThumb1 -26.253704 0.000000 33.147579
RightShoulder -13.501838 -5.758456 -7.717373
RightArm 12.513915 39.808154 17.336080
RightForeArm -33.785263 -0.000000 5.819864
RightHand -10.296416 -0.000000 4.381013
RightHandThumb1 -24.326973 -0.000000 -32.862282
LeftUpLeg 2.975066 14.262670 2.802155
LeftLeg -6.813556 -0.000000 0.000000
LeftFoot -20.747154 25.634478 -14.781340
LeftToeBase 26.089182 -0.000000 -0.000000
RightUpLeg 0.362559 -12.082964 -2.613115
RightLeg -3.649698 -0.000000 0.000000
RightFoot -19.389213 -21.720795 17.807660
RightToeBase 24.771152 -0.000000 -0.000000
